<svg xmlns="http://www.w3.org/2000/svg" viewBox="0 0 160 130" fill="none">
  <defs>
    <linearGradient id="cmFavGradA" x1="15%" y1="85%" x2="85%" y2="15%">
      <stop offset="0%" stop-color="#0284c7" />
      <stop offset="30%" stop-color="#0ea5e9" />
      <stop offset="60%" stop-color="#06b6d4" />
      <stop offset="85%" stop-color="#2dd4bf" />
      <stop offset="100%" stop-color="#34d399" />
    </linearGradient>
    <linearGradient id="cmFavGradB" x1="85%" y1="15%" x2="15%" y2="85%">
      <stop offset="0%" stop-color="#34d399" />
      <stop offset="25%" stop-color="#2dd4bf" />
      <stop offset="55%" stop-color="#06b6d4" />
      <stop offset="80%" stop-color="#0ea5e9" />
      <stop offset="100%" stop-color="#2563eb" />
    </linearGradient>
    <linearGradient id="cmFavGradLoop" x1="0%" y1="50%" x2="100%" y2="50%">
      <stop offset="0%" stop-color="#0ea5e9" />
      <stop offset="50%" stop-color="#06b6d4" />
      <stop offset="100%" stop-color="#10b981" />
    </linearGradient>
  </defs>

  <!-- Cloud Mesh Outer Curves -->
  <path
    d="M 44 88 C 24 88 12 72 16 52 C 20 34 38 28 52 38 C 58 20 80 16 96 26 C 110 36 112 52 106 62 C 124 58 138 72 134 86 C 130 98 116 102 104 96 C 92 90 84 76 74 66 C 64 56 50 56 42 66 C 36 74 38 86 48 88 Z"
    stroke="url(#cmFavGradA)"
    stroke-width="12"
    stroke-linecap="round"
    stroke-linejoin="round"
  />

  <!-- Intertwined Inner Ribbon -->
  <path
    d="M 46 64 C 40 48 54 36 68 44 C 82 52 92 72 106 78 C 120 84 130 76 128 64 C 126 50 112 44 100 52 C 86 62 76 82 60 84 C 46 86 36 78 40 64 C 44 50 60 48 72 58 C 84 68 98 66 106 58"
    stroke="url(#cmFavGradB)"
    stroke-width="10"
    stroke-linecap="round"
    stroke-linejoin="round"
  />

  <!-- Central Loop Connection -->
  <path
    d="M 64 42 C 78 34 94 40 102 54 C 110 68 106 82 94 88 C 82 94 70 86 64 74 C 58 62 62 48 76 46 C 88 44 100 54 104 68"
    stroke="url(#cmFavGradLoop)"
    stroke-width="8"
    stroke-linecap="round"
    stroke-linejoin="round"
    opacity="0.9"
  />

  <!-- Center Energy Core -->
  <circle cx="82" cy="62" r="5" fill="#e0f2fe" />
</svg>
